# xmcd
#
# Track frame offsets:
#	150
#	36320
#	70758
#	85257
#	103873
#	133524
#	166803
#	188351
#	216374
#	235429
#	252591
#	267818
#	284942
#	304809
#
# Disc length: 4278
#
# Revision: 3
# Processed by: cddbd v1.5.1PL0 Copyright (c) Steve Scherf et al.
# Submitted via: DiscPlay 4.0.3
# Normalized: r1:TDELIM( - ),TSWAP
#
DISCID=d210b40e
DTITLE=Tears For Fears, Howard Jones, Talk Talk, Scandal - New Wave Extended Plays
DYEAR=1900
DGENRE=
TTITLE0=Tears For Fears - Shout (U.S. Remix)
TTITLE1=Tears For Fears - Shout (U.K. Remix)
TTITLE2=Tears For Fears - The Big Chair
TTITLE3=Howard Jones - Things Can Only Get Better
TTITLE4=Howard Jones - What Is Love?
TTITLE5=Howard Jones - Things Can Only Get Better (Mix)
TTITLE6=Howard Jones - New Song
TTITLE7=Talk Talk - It's My Life (Mix)
TTITLE8=Talk Talk - Again, A Game... Again
TTITLE9=Scandal - Goodbye To You
TTITLE10=Scandal - Love's Got A Line On You
TTITLE11=Scandal - Win Some, Lose Some
TTITLE12=Scandal - She Can't Say No
TTITLE13=Scandal - Another Bad Love
EXTD=
EXTT0=
EXTT1=
EXTT2=
EXTT3=
EXTT4=
EXTT5=
EXTT6=
EXTT7=
EXTT8=
EXTT9=
EXTT10=
EXTT11=
EXTT12=
EXTT13=
PLAYORDER=
